<svg width="16" height="16" viewBox="0 0 16 16" fill="none" xmlns="http://www.w3.org/2000/svg">
<path d="M12.5357 -3.56436e-05C13.3326 -3.56436e-05 14.0123 0.284562 14.5748 0.853759C15.144 1.41626 15.4286 2.09595 15.4286 2.89282V12.5357C15.4286 13.3326 15.144 14.0122 14.5748 14.5747C14.0123 15.1439 13.3326 15.4285 12.5357 15.4285H10.6473V9.45197H12.6462L12.9475 7.12162H10.6473V5.63501C10.6473 5.26001 10.7243 4.97876 10.8783 4.79126C11.0391 4.60376 11.3471 4.51001 11.8025 4.51001L13.0279 4.49996V2.42072C12.606 2.36046 12.01 2.33032 11.24 2.33032C10.3292 2.33032 9.59933 2.59818 9.05022 3.13389C8.50781 3.66961 8.23661 4.4263 8.23661 5.40398V7.12162H6.22768V9.45197H8.23661V15.4285H2.89286C2.09598 15.4285 1.41295 15.1439 0.84375 14.5747C0.28125 14.0122 0 13.3326 0 12.5357V2.89282C0 2.09595 0.28125 1.41626 0.84375 0.853759C1.41295 0.284562 2.09598 -3.56436e-05 2.89286 -3.56436e-05H12.5357Z" fill="white"/>
</svg>
